<?xml version="1.0" encoding="utf-8"?>
<!-- Generator: Adobe Illustrator 19.1.0, SVG Export Plug-In . SVG Version: 6.00 Build 0)  -->
<svg version="1.1" id="Capa_1" xmlns="http://www.w3.org/2000/svg" xmlns:xlink="http://www.w3.org/1999/xlink" x="0px" y="0px"
	 viewBox="-49 141 512 512" style="enable-background:new -49 141 512 512;" xml:space="preserve">
<style type="text/css">
	.st0{fill:#C2185B;}
	.st1{fill:#EC407A;}
	.st2{fill:#F590B2;}
	.st3{fill:#F8BBD0;}
</style>
<path class="st0" d="M338.5,256.2v370.5c0,14.5-11.8,26.3-26.3,26.3H7.1c-14.5,0-26.3-11.8-26.3-26.3V256.2
	c0-14.5,11.8-26.3,26.3-26.3h305.1C326.8,229.9,338.5,241.7,338.5,256.2z"/>
<path class="st1" d="M338.5,256.2v362.5H36.2c-14.5,0-26.3-11.8-26.3-26.3V229.9h302.4C326.8,229.9,338.5,241.7,338.5,256.2z"/>
<path class="st2" d="M414.5,547l-292,88.6c-13.9,4.2-28.6-3.6-32.8-17.5L-17.8,263.5c-4.2-13.9,3.6-28.6,17.5-32.8l5.7-1.7
	l286.3-86.8c13.9-4.2,28.6,3.6,32.8,17.5l105.1,346.5l2.4,8C436.3,528.1,428.4,542.8,414.5,547z"/>
<path class="st3" d="M429.6,506.2L143.3,593c-13.9,4.2-28.6-3.6-32.8-17.5L5.4,229l286.3-86.8c13.9-4.2,28.6,3.6,32.8,17.5
	L429.6,506.2z"/>
<g>
	<path class="st1" d="M170.8,318.4c11.8,0.8,17.6,1.5,20.3,10.4c2.3,7.7-0.6,12.4-9.1,15c-7.9,2.4-11.8,0.2-15.2-1.8
		c-2.3-1.3-4.9-2.8-8.1-1.9c-4.9,1.5-7.2,7.8-5.9,12.3c2.2,7.3,13.5,11.9,25.8,10.9l0.9,3.1c1.6,5.2,7,8.1,12.2,6.5
		c5.2-1.6,8.1-7,6.5-12.2l-1-3.3c12.1-7.3,16.5-19.8,11.9-34.8c-6.6-21.7-24-22.7-34.4-23.4l-1.2-0.1c-10.3-0.6-15-1.1-16.8-7.2
		c-1-3.4-0.6-5.8,1.5-8c2.2-2.2,5.5-3.6,8-4.3c5.9-1.8,9.6-1.1,12.3-0.6c1.9,0.4,3.7,0.7,5.7,0.1c5.6-1.7,6.9-8.3,5.7-12.2
		c-2.5-8.4-15.3-7.5-22.1-6.4l-0.9-3.1c-1.6-5.2-7-8.1-12.2-6.5c-5.2,1.6-8.1,7-6.5,12.2l1.3,4.3c-10.9,7.1-14.7,18-10.8,30.8
		C144.2,316.7,158.9,317.6,170.8,318.4z"/>
	<path class="st1" d="M328.7,363.4c-1.2-4.1-5.6-6.4-9.7-5.2l-222,67.3c-4.1,1.2-6.4,5.6-5.2,9.7c1,3.4,4.1,5.5,7.4,5.5
		c0.7,0,1.5-0.1,2.3-0.3l222-67.3C327.7,371.9,330,367.6,328.7,363.4z"/>
	<path class="st1" d="M341.7,406.2c-1.2-4.1-5.6-6.4-9.7-5.2l-222,67.3c-4.1,1.2-6.4,5.6-5.2,9.7c1,3.4,4.1,5.5,7.4,5.5
		c0.7,0,1.5-0.1,2.3-0.3l222-67.3C340.6,414.6,343,410.3,341.7,406.2z"/>
	<path class="st1" d="M354.7,448.9c-1.2-4.1-5.6-6.4-9.7-5.2L123,511c-4.1,1.2-6.4,5.6-5.2,9.7c1,3.4,4.1,5.5,7.4,5.5
		c0.7,0,1.5-0.1,2.3-0.3l222-67.3C353.6,457.4,355.9,453,354.7,448.9z"/>
	<path class="st1" d="M367.6,491.6c-1.2-4.1-5.6-6.4-9.7-5.2l-222,67.3c-4.1,1.2-6.4,5.6-5.2,9.7c1,3.4,4.1,5.5,7.4,5.5
		c0.7,0,1.5-0.1,2.3-0.3l222-67.3C366.6,500.1,368.9,495.7,367.6,491.6z"/>
</g>
<path class="st1" d="M102.5,199.5l-14.9,4.5C83,190.3,70,180.4,54.7,180.4C35.5,180.4,20,196,20,215.1v90c0,11.2,9.1,20.3,20.3,20.3
	s20.3-9.1,20.3-20.3v-89.8c0-1-0.2-2-0.7-2.8c-1-2-3.1-3.4-5.6-3.4c-3.4,0-6.3,2.8-6.3,6.3v77.3c0,4.3-3.5,7.8-7.8,7.8
	s-7.8-3.5-7.8-7.8v-77.3c0-12,9.8-21.8,21.8-21.8c9.4,0,17.5,6,20.5,14.4c0.8,2.3,1.3,4.8,1.3,7.4v89.8c0,19.8-16.1,35.9-35.9,35.9
	c-19.8,0-35.9-16.1-35.9-35.9v-90c0-27.7,22.6-50.3,50.3-50.3C77,164.8,95.9,179.4,102.5,199.5z"/>
<image style="overflow:visible;" width="166" height="304" xlink:href="E177AA19.jpg"  transform="matrix(1 0 0 1 647 248.6454)">
</image>
</svg>
