<?xml version="1.0" encoding="utf-8"?>
<!-- Generator: Adobe Illustrator 19.0.0, SVG Export Plug-In . SVG Version: 6.00 Build 0)  -->
<svg version="1.1" id="Layer_1" xmlns="http://www.w3.org/2000/svg" xmlns:xlink="http://www.w3.org/1999/xlink" x="0px" y="0px"
	 viewBox="0 0 42.7 42.7" style="enable-background:new 0 0 42.7 42.7;" xml:space="preserve">
<style type="text/css">
	.st0{fill:#FFFFFF;}
</style>
<g id="XMLID_178_">
	<g id="XMLID_188_">
		<path id="XMLID_189_" class="st0" d="M7.3,22.9h15.6c0.9,0,1.6-0.7,1.6-1.6c0-0.9-0.7-1.6-1.6-1.6H7.3c-0.9,0-1.6,0.7-1.6,1.6
			C5.7,22.2,6.4,22.9,7.3,22.9z"/>
	</g>
	<g id="XMLID_185_">
		<path id="XMLID_187_" class="st0" d="M7.3,13.5h28.2c0.9,0,1.6-0.7,1.6-1.6c0-0.9-0.7-1.6-1.6-1.6H7.3c-0.9,0-1.6,0.7-1.6,1.6
			C5.7,12.8,6.4,13.5,7.3,13.5z"/>
	</g>
	<g id="XMLID_180_">
		<path id="XMLID_181_" class="st0" d="M7.3,32.3h23.5c0.9,0,1.6-0.7,1.6-1.6s-0.7-1.6-1.6-1.6H7.3c-0.9,0-1.6,0.7-1.6,1.6
			S6.4,32.3,7.3,32.3z"/>
	</g>
</g>
</svg>
