<?xml version="1.0" encoding="utf-8"?>
<!-- Generator: Adobe Illustrator 19.0.0, SVG Export Plug-In . SVG Version: 6.00 Build 0)  -->
<svg version="1.1" id="Layer_1" xmlns="http://www.w3.org/2000/svg" xmlns:xlink="http://www.w3.org/1999/xlink" x="0px" y="0px"
	 viewBox="-458 259.3 42.7 42.7" style="enable-background:new -458 259.3 42.7 42.7;" xml:space="preserve">
<g id="XMLID_178_">
	<g id="XMLID_188_">
		<path id="XMLID_189_" d="M-420.9,280.6c0-0.9-0.7-1.6-1.6-1.6h-15.6c-0.9,0-1.6,0.7-1.6,1.6c0,0.9,0.7,1.6,1.6,1.6h15.6
			C-421.6,282.2-420.9,281.5-420.9,280.6z"/>
	</g>
	<g id="XMLID_185_">
		<path id="XMLID_187_" d="M-420.9,271.2c0-0.9-0.7-1.6-1.6-1.6h-28.2c-0.9,0-1.6,0.7-1.6,1.6s0.7,1.6,1.6,1.6h28.2
			C-421.6,272.8-420.9,272.1-420.9,271.2z"/>
	</g>
	<g id="XMLID_180_">
		<path id="XMLID_181_" d="M-420.9,290c0-0.9-0.7-1.6-1.6-1.6H-446c-0.9,0-1.6,0.7-1.6,1.6c0,0.9,0.7,1.6,1.6,1.6h23.5
			C-421.6,291.6-420.9,290.9-420.9,290z"/>
	</g>
</g>
</svg>
