<?xml version="1.0" encoding="utf-8"?>
<!-- Generator: Adobe Illustrator 19.1.0, SVG Export Plug-In . SVG Version: 6.00 Build 0)  -->
<svg version="1.1" id="Layer_1" xmlns="http://www.w3.org/2000/svg" xmlns:xlink="http://www.w3.org/1999/xlink" x="0px" y="0px"
	 viewBox="-49 141 512 512" style="enable-background:new -49 141 512 512;" xml:space="preserve">
<style type="text/css">
	.st0{fill:#EDEDED;}
	.st1{fill:#DE594E;}
	.st2{fill:#D6B24E;}
	.st3{fill:#293B44;}
	.st4{fill:#DBD8DD;}
	.st5{fill:#4ABBA4;}
	.st6{fill:#344D5B;}
	.st7{fill:#FEDA6F;}
	.st8{fill:#FCD462;}
</style>
<g>
	<path class="st0" d="M364,153H50.7c-15.9,0-28.8,12.9-28.8,28.8v430.4c0,15.9,12.9,28.8,28.8,28.8H364c15.9,0,28.8-12.9,28.8-28.8
		V181.8C392.8,165.9,379.9,153,364,153L364,153z"/>
	<path class="st1" d="M21.2,483v129.2c0,15.9,12.9,28.8,28.8,28.8h313.3c15.9,0,28.8-12.9,28.8-28.8V483H21.2z"/>
	<path class="st2" d="M182.4,376.4h49.8V435h-49.8V376.4z"/>
	<path class="st3" d="M312.1,486.9c-2.1-19.7-4.8-31.8-6.6-38.2c-1.1-3.8-3.3-7.1-6.4-9.5c-26.2-20.3-65.3-32.3-65.3-32.3L207.3,435
		v0L180.9,407c0,0-39.1,12-65.3,32.3c-3.1,2.4-5.4,5.7-6.4,9.5c-1.8,6.4-4.5,18.4-6.6,38.2c-3.4,32.1-1.7,55.2-1.7,55.2l106.4,0
		h106.4C313.7,542.1,315.4,519,312.1,486.9z"/>
	<path class="st4" d="M241.6,409.6c-4.8-1.8-7.8-2.7-7.8-2.7L207.3,435v0L180.9,407c0,0-3,0.9-7.8,2.7c-3.7,1.3-8.4,3.1-13.7,5.3
		l3.2,39.8l5.6,9.4l1.5,12.1c12.5,48.4,37.7,65.8,37.7,65.8l0,0c0.2-0.1,25.2-17.6,37.7-65.8l1.5-12.1l5.6-9.4l3.2-39.8
		C250,412.7,245.2,410.9,241.6,409.6z"/>
	<path class="st5" d="M212.7,435h-11.5l-5.8,9.4l5.8,16.3h11.5l5.8-16.3L212.7,435z"/>
	<path class="st0" d="M232.3,401.1l-25,34l17.5,20.9l20.2-45L232.3,401.1z"/>
	<path class="st0" d="M182.4,401.1l25,34L189.9,456l-20.2-45L182.4,401.1z"/>
	<path class="st5" d="M216.7,533.4l-9.4,8.7l-10.1-12l3.8-70.7h11.8L216.7,533.4z"/>
	<path class="st6" d="M163.3,466.5l-4.4,9.2c12.5,48.4,48.4,66.3,48.4,66.3c-31.2-46.3-34-121.5-34.2-132.4c0-0.9,0-1.3,0-1.3
		l-13.7,6.7l-5.4,45L163.3,466.5z"/>
	<path class="st6" d="M251.4,466.5l4.4,9.2c-12.5,48.4-48.4,66.4-48.4,66.4c31.2-46.3,34-121.6,34.2-132.5c0-0.9,0-1.3,0-1.3
		l13.7,6.7l5.4,45L251.4,466.5z"/>
	<path class="st7" d="M263.3,332.2c-3.6-0.7-7.5,4-8.8,10.6c-1.3,6.5,0.6,12.4,4.2,13.1c3.6,0.7,7.5-4,8.8-10.6
		C268.7,338.8,266.8,332.9,263.3,332.2z"/>
	<path class="st7" d="M152.2,332.2c3.6-0.7,7.5,4,8.8,10.6c1.3,6.5-0.6,12.4-4.2,13.1c-3.6,0.7-7.5-4-8.8-10.6
		C146.7,338.8,148.6,332.9,152.2,332.2z"/>
	<path class="st8" d="M260.3,321.4c0,5.9,2.6,12.2,0.9,18.9c-7.1,28.7-28.4,60.8-53.5,60.8c-24.8,0-45.9-31.1-53.3-59.5
		c-1.9-7.2-2.9-14.2-2.9-20.4c0-30,26.5-34.2,56.2-35.9c0.8-0.1-0.5-6.3,0.3-6.3l-0.2,3.8c1.2,0,3.6-6.4,4.8-6.3
		c1,0.1,1.7,6.7,2.8,6.8c0.6,0-2.5-4-1.9-3.9C240.5,283.6,260.3,293.2,260.3,321.4z"/>
	<g>
		<path class="st6" d="M266.7,292c-3.1-18.5-21.7-12.8-21.7-12.8l0,0c0,0,0,0,0,0l0.1,0c0,0,3.8-3.8-1.4-14.2
			c-5.2-10.4-31.3-17.3-56.3-10.4c-25,6.9-36.1,22.7-40.4,49.2c-3.6,22.2,4,33.6,6.6,36.8l3.4,10.9h3l7.3-41.6
			c14.7-10.7,46.7-5.1,68.7-22.2c3.5,13.6-2.9,19.5,16.1,51.1l2.6,12.8h3l2.8-8.9c0,0,0,0,0,0C266,327.5,269.8,310.5,266.7,292z"/>
		<path class="st6" d="M120.8,567.7h6.8V616h-6.8V567.7z"/>
		<path class="st6" d="M155,567.7h3.4V616H155V567.7z"/>
		<path class="st6" d="M136,567.7h11.7V616H136V567.7z"/>
		<path class="st6" d="M166.4,567.7h6.8V616h-6.8V567.7z"/>
		<path class="st6" d="M200.6,567.7h3.4V616h-3.4V567.7z"/>
		<path class="st6" d="M181.6,567.7h11.7V616h-11.7V567.7z"/>
		<path class="st6" d="M209.3,567.7h6.8V616h-6.8V567.7z"/>
		<path class="st6" d="M243.5,567.7h3.4V616h-3.4V567.7z"/>
		<path class="st6" d="M224.5,567.7h11.7V616h-11.7V567.7z"/>
		<path class="st6" d="M254.9,567.7h6.8V616h-6.8V567.7z"/>
		<path class="st6" d="M289.1,567.7h3.4V616h-3.4V567.7z"/>
		<path class="st6" d="M270.1,567.7h11.7V616h-11.7V567.7z"/>
	</g>
</g>
</svg>
